<?xml version="1.0" encoding="utf-8"?>
<!-- Generator: Adobe Illustrator 27.5.0, SVG Export Plug-In . SVG Version: 6.00 Build 0)  -->
<svg version="1.1" xmlns="http://www.w3.org/2000/svg" xmlns:xlink="http://www.w3.org/1999/xlink" x="0px" y="0px"
	 viewBox="0 0 500 500" style="enable-background:new 0 0 500 500;" xml:space="preserve">
<g id="BACKGROUND">
	<rect style="fill:#6EBEC5;" width="500" height="500"/>
</g>
<g id="OBJECTS">
	<g>
		<path style="fill:#4AAAC5;" d="M394.035,387.236c1.753-3.814,2.758-8.046,2.758-12.522c0-0.55-0.016-1.098-0.045-1.641v-12.037
			h0.007V149.093c0.143-1.191,0.225-2.401,0.225-3.631c0-16.592-13.45-30.039-30.037-30.039h-58.921h-28.343H125.685
			c-16.589,0-30.038,13.448-30.038,30.039c0,1.23,0.082,2.441,0.225,3.631v10.046v201.897v10.048
			c-0.143,1.19-0.225,2.399-0.225,3.63c0,16.592,13.449,30.039,30.038,30.039h241.07c5.893,0,11.373-1.719,16.01-4.656l21.636,6.598
			v-4.522L394.035,387.236z"/>
		<path style="fill:#C4CACA;" d="M394.035,385.729c1.753-3.814,2.758-8.045,2.758-12.523c0-0.548-0.016-1.098-0.045-1.639v-12.039
			h0.007V147.585c0.143-1.191,0.225-2.4,0.225-3.631c0-16.592-13.45-30.04-30.037-30.04h-58.921h-28.343H125.685
			c-16.589,0-30.038,13.448-30.038,30.04c0,1.23,0.082,2.44,0.225,3.631v10.047v201.896v10.047c-0.143,1.19-0.225,2.399-0.225,3.631
			c0,16.592,13.449,30.04,30.038,30.04h241.07c5.893,0,11.373-1.721,16.01-4.654l21.636,6.596v-4.521L394.035,385.729z"/>
		<path style="fill:#FFFFFF;" d="M394.035,381.206c1.753-3.813,2.758-8.043,2.758-12.521c0-0.55-0.016-1.1-0.045-1.642v-12.037
			h0.007V143.064c0.143-1.191,0.225-2.401,0.225-3.631c0-16.592-13.45-30.041-30.037-30.041h-58.921h-28.343H125.685
			c-16.589,0-30.038,13.448-30.038,30.041c0,1.23,0.082,2.44,0.225,3.631v10.047v201.896v10.048
			c-0.143,1.189-0.225,2.398-0.225,3.631c0,16.591,13.449,30.039,30.038,30.039h241.07c5.893,0,11.373-1.721,16.01-4.656
			l21.636,6.599L394.035,381.206z"/>
		<g>
			<polygon style="fill:#EDF4FF;" points="95.872,162.021 102.519,169.51 116.115,154.197 129.709,169.508 143.304,154.197 
				156.901,169.508 170.496,154.197 184.093,169.508 197.689,154.197 211.287,169.508 224.881,154.197 238.477,169.508 
				252.073,154.198 265.666,169.51 279.261,154.198 292.847,169.51 306.446,154.198 320.038,169.51 333.634,154.198 
				347.226,169.508 360.824,154.197 374.42,169.508 388.016,154.197 396.755,164.035 396.755,152.507 388.016,142.668 
				374.42,157.98 360.824,142.667 347.226,157.98 333.634,142.667 320.038,157.978 306.446,142.667 292.851,157.978 
				279.261,142.667 265.666,157.978 252.075,142.667 238.477,157.98 224.881,142.667 211.287,157.98 197.689,142.667 
				184.093,157.98 170.496,142.667 156.901,157.98 143.304,142.667 129.709,157.98 116.115,142.667 102.519,157.978 95.872,150.491 
				95.872,153.11 			"/>
			<polygon style="fill:#EDF4FF;" points="116.115,253.136 129.709,268.447 143.304,253.136 156.901,268.447 170.496,253.136 
				184.093,268.447 197.689,253.136 211.287,268.447 224.881,253.136 238.477,268.447 252.073,253.137 265.666,268.449 
				279.261,253.137 292.847,268.449 306.446,253.137 320.038,268.449 333.634,253.137 347.226,268.447 360.824,253.136 
				374.42,268.447 388.016,253.136 396.755,262.974 396.755,251.445 388.016,241.607 374.42,256.919 360.824,241.606 
				347.226,256.919 333.634,241.605 320.038,256.916 306.446,241.605 292.851,256.916 279.261,241.605 265.666,256.916 
				252.075,241.605 238.477,256.919 224.881,241.606 211.287,256.919 197.689,241.606 184.093,256.919 170.496,241.606 
				156.901,256.919 143.304,241.606 129.709,256.919 116.115,241.606 102.519,256.916 95.872,249.43 95.872,260.961 
				102.519,268.449 			"/>
			<polygon style="fill:#EDF4FF;" points="396.755,355.007 396.755,350.386 388.016,340.549 374.42,355.859 360.824,340.547 
				347.226,355.859 333.634,340.547 320.038,355.858 306.446,340.547 292.851,355.858 279.261,340.547 265.666,355.858 
				252.075,340.547 238.477,355.859 224.881,340.547 211.287,355.859 197.689,340.547 184.093,355.859 170.496,340.547 
				156.901,355.859 143.304,340.547 129.709,355.859 116.115,340.547 102.519,355.858 95.872,348.369 95.872,355.007 95.872,359.9 
				102.519,367.39 116.115,352.076 129.709,367.388 143.304,352.076 156.901,367.388 170.496,352.076 184.093,367.388 
				197.689,352.076 211.287,367.388 224.881,352.076 238.477,367.388 252.073,352.078 265.666,367.39 279.261,352.078 
				292.847,367.39 306.446,352.078 320.038,367.39 333.634,352.078 347.226,367.388 360.824,352.076 374.42,367.388 
				388.016,352.076 396.748,361.907 396.748,355.007 			"/>
			<polygon style="fill:#EDF4FF;" points="116.115,327.341 129.709,342.653 143.304,327.341 156.901,342.653 170.496,327.341 
				184.093,342.653 197.689,327.341 211.287,342.653 224.881,327.341 238.477,342.653 252.073,327.342 265.666,342.654 
				279.261,327.342 292.847,342.654 306.446,327.342 320.038,342.654 333.634,327.342 347.226,342.653 360.824,327.341 
				374.42,342.653 388.016,327.341 396.755,337.179 396.755,325.65 388.016,315.813 374.42,331.123 360.824,315.81 347.226,331.123 
				333.634,315.81 320.038,331.122 306.446,315.81 292.851,331.122 279.261,315.81 265.666,331.122 252.075,315.81 238.477,331.123 
				224.881,315.81 211.287,331.123 197.689,315.81 184.093,331.123 170.496,315.81 156.901,331.123 143.304,315.81 129.709,331.123 
				116.115,315.81 102.519,331.122 95.872,323.634 95.872,335.165 102.519,342.654 			"/>
			<path style="fill:#EDF4FF;" d="M102.519,144.775l13.596-15.312l13.594,15.311l13.595-15.311l13.598,15.311l13.594-15.311
				l13.598,15.311l13.596-15.311l13.598,15.311l13.595-15.311l13.596,15.311l13.596-15.31l13.593,15.311l13.595-15.311
				l13.586,15.311l13.6-15.311l13.592,15.311l13.596-15.311l13.592,15.31l13.599-15.311l13.596,15.311l13.596-15.311l8.961,10.086
				c0-0.04,0.003-0.078,0.003-0.117c0-7.667-2.875-14.66-7.602-19.967l-0.276-0.31c-0.366-0.401-0.746-0.789-1.134-1.169
				l-13.548,15.257l-13.596-15.312l-13.599,15.312l-13.592-15.312l-13.596,15.31l-13.592-15.31l-13.596,15.31l-13.59-15.31
				l-13.595,15.31l-13.591-15.31l-13.598,15.312l-13.596-15.312l-13.595,15.312l-13.598-15.312l-13.596,15.312l-13.598-15.312
				l-13.594,15.312l-13.598-15.312l-13.595,15.312l-13.594-15.312l-13.596,15.31l-4.626-5.211c-1.168,2.844-1.908,5.907-2.15,9.11
				L102.519,144.775z"/>
			<path style="fill:#EDF4FF;" d="M388.016,376.811l9.188,10.341l-3.168-5.946c0.971-2.113,1.705-4.359,2.172-6.703l-8.191-9.22
				l-13.596,15.311l-13.596-15.313l-13.599,15.313l-13.592-15.313l-13.596,15.313l-13.592-15.313l-13.596,15.313l-13.59-15.313
				l-13.595,15.313l-13.591-15.313l-13.598,15.313l-13.596-15.313l-13.595,15.313l-13.598-15.313l-13.596,15.313l-13.598-15.313
				l-13.594,15.313l-13.598-15.313l-13.595,15.313l-13.594-15.313l-13.596,15.313l-6.528-7.355
				c0.985,6.478,4.04,12.275,8.469,16.699l11.656-13.127l13.594,15.311l13.595-15.311l13.598,15.311l13.594-15.311l13.598,15.311
				l13.596-15.311l13.598,15.311l13.595-15.311l13.596,15.311l13.596-15.309l13.593,15.31l13.595-15.31l13.586,15.31l13.6-15.31
				l13.592,15.31l13.596-15.31l13.592,15.309l13.599-15.311l13.596,15.311L388.016,376.811z"/>
			<polygon style="fill:#EDF4FF;" points="116.115,302.606 129.709,317.918 143.304,302.606 156.901,317.918 170.496,302.606 
				184.093,317.918 197.689,302.606 211.287,317.918 224.881,302.606 238.477,317.918 252.073,302.607 265.666,317.92 
				279.261,302.607 292.847,317.92 306.446,302.607 320.038,317.92 333.634,302.607 347.226,317.918 360.824,302.606 
				374.42,317.918 388.016,302.606 396.755,312.443 396.755,300.915 388.016,291.077 374.42,306.389 360.824,291.075 
				347.226,306.389 333.634,291.075 320.038,306.388 306.446,291.075 292.851,306.388 279.261,291.075 265.666,306.388 
				252.075,291.075 238.477,306.389 224.881,291.075 211.287,306.389 197.689,291.075 184.093,306.389 170.496,291.075 
				156.901,306.389 143.304,291.075 129.709,306.389 116.115,291.075 102.519,306.388 95.872,298.899 95.872,310.433 
				102.519,317.92 			"/>
			<polygon style="fill:#EDF4FF;" points="374.42,182.714 360.824,167.402 347.226,182.714 333.634,167.402 320.038,182.713 
				306.446,167.402 292.851,182.713 279.261,167.402 265.666,182.713 252.075,167.402 238.477,182.714 224.881,167.402 
				211.287,182.714 197.689,167.402 184.093,182.714 170.496,167.402 156.901,182.714 143.304,167.402 129.709,182.714 
				116.115,167.402 102.519,182.713 95.872,175.226 95.872,186.757 102.519,194.245 116.115,178.932 129.709,194.243 
				143.304,178.932 156.901,194.243 170.496,178.932 184.093,194.243 197.689,178.932 211.287,194.243 224.881,178.932 
				238.477,194.243 252.073,178.933 265.666,194.245 279.261,178.933 292.847,194.245 306.446,178.933 320.038,194.245 
				333.634,178.933 347.226,194.243 360.824,178.932 374.42,194.243 388.016,178.932 396.755,188.769 396.755,177.241 
				388.016,167.403 			"/>
			<polygon style="fill:#EDF4FF;" points="374.42,207.449 360.824,192.137 347.226,207.449 333.634,192.136 320.038,207.448 
				306.446,192.136 292.851,207.448 279.261,192.136 265.666,207.448 252.075,192.136 238.477,207.449 224.881,192.137 
				211.287,207.449 197.689,192.137 184.093,207.449 170.496,192.137 156.901,207.449 143.304,192.137 129.709,207.449 
				116.115,192.137 102.519,207.448 95.872,199.961 95.872,211.492 102.519,218.98 116.115,203.667 129.709,218.979 
				143.304,203.667 156.901,218.979 170.496,203.667 184.093,218.979 197.689,203.667 211.287,218.979 224.881,203.667 
				238.477,218.979 252.073,203.668 265.666,218.98 279.261,203.668 292.847,218.98 306.446,203.668 320.038,218.98 
				333.634,203.668 347.226,218.979 360.824,203.667 374.42,218.979 388.016,203.667 396.755,213.503 396.755,201.976 
				388.016,192.138 			"/>
			<polygon style="fill:#EDF4FF;" points="116.115,277.871 129.709,293.183 143.304,277.871 156.901,293.183 170.496,277.871 
				184.093,293.183 197.689,277.871 211.287,293.183 224.881,277.871 238.477,293.183 252.073,277.872 265.666,293.185 
				279.261,277.872 292.847,293.185 306.446,277.872 320.038,293.185 333.634,277.872 347.226,293.183 360.824,277.871 
				374.42,293.183 388.016,277.871 396.755,287.708 396.755,276.181 388.016,266.342 374.42,281.654 360.824,266.342 
				347.226,281.654 333.634,266.342 320.038,281.652 306.446,266.342 292.851,281.652 279.261,266.342 265.666,281.652 
				252.075,266.342 238.477,281.654 224.881,266.342 211.287,281.654 197.689,266.342 184.093,281.654 170.496,266.342 
				156.901,281.654 143.304,266.342 129.709,281.654 116.115,266.342 102.519,281.652 95.872,274.165 95.872,285.696 
				102.519,293.185 			"/>
			<polygon style="fill:#EDF4FF;" points="374.42,232.184 360.824,216.872 347.226,232.184 333.634,216.871 320.038,232.182 
				306.446,216.871 292.851,232.182 279.261,216.871 265.666,232.182 252.075,216.871 238.477,232.184 224.881,216.872 
				211.287,232.184 197.689,216.872 184.093,232.184 170.496,216.872 156.901,232.184 143.304,216.872 129.709,232.184 
				116.115,216.872 102.519,232.182 95.872,224.696 95.872,236.227 102.519,243.714 116.115,228.402 129.709,243.713 
				143.304,228.402 156.901,243.713 170.496,228.402 184.093,243.713 197.689,228.402 211.287,243.713 224.881,228.402 
				238.477,243.713 252.073,228.403 265.666,243.714 279.261,228.403 292.847,243.714 306.446,228.403 320.038,243.714 
				333.634,228.403 347.226,243.713 360.824,228.402 374.42,243.713 388.016,228.402 396.755,238.238 396.755,226.71 
				388.016,216.873 			"/>
		</g>
		<g>
			<path style="opacity:0.3;" d="M280.973,213.96c0.06,0.179,0.147,0.319,0.264,0.417c0.116,0.099,0.285,0.188,0.506,0.267
				c0.221,0.081,0.499,0.132,0.837,0.156c0.416,0.028,0.747,0.014,0.993-0.047c0.246-0.061,0.421-0.184,0.525-0.372
				c0.104-0.187,0.166-0.354,0.186-0.503c0.02-0.147,0.029-0.371,0.029-0.669c0-0.734,0-1.467,0-2.201
				c0.818,0.06,1.633,0.122,2.451,0.184c0.201,0.003,0.403,0.006,0.603,0.009c0.545,1.341,0.96,2.349,1.244,3.021
				c0.118,0.282,0.212,0.49,0.283,0.626c0.07,0.136,0.188,0.272,0.352,0.409c0.16,0.137,0.353,0.214,0.573,0.233
				c0.284,0.024,0.635-0.038,1.05-0.184c0.803-0.269,1.207-0.647,1.207-1.141c-0.001-0.207-0.098-0.554-0.292-1.038
				c-0.598-1.402-1.038-2.459-1.322-3.172c0.972-0.864,1.459-2.028,1.459-3.496c0-0.844-0.17-1.624-0.507-2.342
				c-0.338-0.717-0.766-1.299-1.283-1.746c-0.52-0.446-1.067-0.8-1.645-1.061c-0.577-0.261-1.138-0.413-1.684-0.455
				c-1.4-0.109-2.802-0.211-4.203-0.309c-0.416-0.029-0.748-0.013-0.993,0.048c-0.247,0.062-0.423,0.186-0.526,0.373
				c-0.104,0.188-0.164,0.356-0.186,0.505c-0.018,0.148-0.028,0.37-0.028,0.669c0,3.602,0,7.206,0,10.808
				c0,0.248,0.004,0.433,0.01,0.557C280.883,213.629,280.916,213.781,280.973,213.96z M284.313,204.114
				c0.818,0.06,1.633,0.122,2.451,0.185c0.403,0.031,0.792,0.208,1.169,0.53c0.375,0.322,0.563,0.764,0.563,1.322
				c0,0.585-0.188,1.004-0.563,1.259c-0.377,0.255-0.753,0.369-1.13,0.339c-0.83-0.065-1.66-0.127-2.49-0.188
				C284.313,206.413,284.313,205.263,284.313,204.114z M208.758,214.275c0.058,0.171,0.145,0.297,0.263,0.379
				c0.116,0.083,0.285,0.149,0.506,0.196c0.22,0.05,0.499,0.061,0.837,0.038c2.569-0.184,5.14-0.347,7.71-0.492
				c0.247-0.015,0.433-0.028,0.556-0.042c0.123-0.013,0.273-0.054,0.448-0.122c0.175-0.067,0.309-0.162,0.4-0.284
				c0.091-0.122,0.169-0.295,0.234-0.518c0.064-0.225,0.097-0.506,0.097-0.843c0-0.415-0.039-0.744-0.116-0.987
				c-0.079-0.242-0.215-0.409-0.41-0.504c-0.194-0.093-0.367-0.146-0.516-0.156c-0.149-0.012-0.374-0.009-0.673,0.008
				c-1.999,0.112-4,0.236-5.998,0.373c0-0.656,0-1.311,0-1.967c1.272-0.086,2.543-0.169,3.817-0.246
				c0.247-0.015,0.432-0.028,0.556-0.042c0.122-0.015,0.276-0.057,0.457-0.126c0.182-0.068,0.318-0.164,0.409-0.286
				c0.091-0.123,0.168-0.296,0.234-0.52c0.064-0.225,0.098-0.505,0.098-0.843c0-0.415-0.039-0.744-0.117-0.986
				c-0.078-0.242-0.215-0.41-0.409-0.503c-0.194-0.092-0.367-0.143-0.517-0.154c-0.149-0.011-0.374-0.006-0.672,0.011
				c-1.285,0.078-2.571,0.161-3.856,0.248c0-0.655,0-1.311,0-1.966c1.993-0.136,3.986-0.26,5.979-0.372
				c0.247-0.013,0.433-0.027,0.556-0.04c0.123-0.014,0.273-0.055,0.448-0.122c0.175-0.068,0.309-0.163,0.4-0.284
				c0.091-0.122,0.169-0.294,0.234-0.519c0.064-0.224,0.097-0.505,0.097-0.843c0-0.415-0.039-0.745-0.116-0.986
				c-0.079-0.244-0.215-0.411-0.41-0.505c-0.194-0.092-0.367-0.146-0.516-0.157c-0.149-0.011-0.374-0.008-0.673,0.009
				c-2.558,0.145-5.116,0.307-7.671,0.489c-0.689,0.05-1.156,0.204-1.402,0.462c-0.247,0.259-0.37,0.719-0.37,1.381
				c0,3.609,0,7.219,0,10.827c0,0.247,0.003,0.432,0.01,0.555C208.666,213.958,208.699,214.105,208.758,214.275z M243.623,212.844
				c0.058,0.175,0.146,0.308,0.263,0.398c0.117,0.091,0.285,0.167,0.507,0.231c0.221,0.064,0.5,0.095,0.838,0.094
				c0.416-0.001,0.748-0.041,0.996-0.12c0.246-0.079,0.423-0.215,0.526-0.409c0.104-0.195,0.166-0.367,0.185-0.517
				c0.02-0.149,0.03-0.373,0.03-0.672c0-0.733,0-1.467,0-2.2c0.819,0,1.638,0.003,2.456,0.006c0.202-0.012,0.403-0.024,0.605-0.036
				c0.546,1.302,0.962,2.278,1.25,2.929c0.117,0.274,0.21,0.477,0.281,0.607c0.072,0.13,0.188,0.258,0.351,0.382
				c0.164,0.126,0.355,0.188,0.576,0.191c0.286,0.003,0.637-0.084,1.054-0.26c0.806-0.327,1.209-0.736,1.209-1.229
				c0-0.208-0.098-0.547-0.293-1.018c-0.599-1.358-1.039-2.383-1.325-3.075c0.975-0.935,1.462-2.135,1.462-3.603
				c0-0.843-0.169-1.612-0.507-2.305c-0.338-0.693-0.767-1.244-1.287-1.652c-0.52-0.409-1.07-0.722-1.648-0.941
				c-0.58-0.219-1.141-0.329-1.687-0.332c-1.404-0.007-2.809-0.008-4.212-0.003c-0.417,0.001-0.749,0.041-0.995,0.12
				c-0.247,0.08-0.423,0.218-0.527,0.413c-0.104,0.196-0.166,0.368-0.185,0.517c-0.02,0.15-0.029,0.374-0.029,0.672
				c0,3.602,0,7.206,0,10.809c0,0.246,0.003,0.432,0.009,0.554C243.532,212.52,243.564,212.669,243.623,212.844z M246.968,202.755
				c0.819,0,1.638,0.001,2.456,0.006c0.403,0.001,0.793,0.149,1.169,0.445c0.379,0.295,0.567,0.722,0.567,1.28
				c0.001,0.585-0.188,1.018-0.567,1.3c-0.376,0.284-0.753,0.423-1.13,0.422c-0.832-0.004-1.665-0.006-2.496-0.006
				C246.968,205.052,246.968,203.905,246.968,202.755z M221.268,249.064c-0.208,0.01-0.417,0.02-0.626,0.031
				c0-8.497,0-16.994,0-25.491c0-0.125-0.063-0.185-0.063-0.31c0-0.188,0-0.251-0.063-0.373c0-0.063-0.063-0.184-0.063-0.247
				c-0.063-0.185-0.063-0.248-0.126-0.37c-0.063-0.059-0.126-0.181-0.126-0.243c-0.125-0.182-0.188-0.24-0.251-0.301
				c-0.062-0.059-0.124-0.181-0.187-0.24c-0.063-0.059-0.126-0.119-0.251-0.236c-0.001-0.063-0.126-0.119-0.188-0.116
				c0-0.063-0.063-0.059-0.063-0.059c-0.126-0.056-0.188-0.114-0.313-0.171c-0.063-0.059-0.188-0.115-0.313-0.233
				c-0.062,0.003-0.188-0.052-0.251-0.049c-0.124-0.056-0.313-0.045-0.374-0.104c-0.126,0.007-0.189,0.01-0.314-0.045
				c-0.126,0.007-0.251,0.015-0.376,0.022c-0.063,0.003-0.063,0.003-0.125,0.007c-0.063,0.003-0.126,0.006-0.126,0.006
				c-0.146,0.009-0.292,0.018-0.439,0.026c-0.063,0.067-0.188,0.074-0.25,0.077c-0.188,0.074-0.313,0.082-0.376,0.148
				c-0.124,0.008-0.188,0.075-0.249,0.203c-0.189,0.011-0.251,0.078-0.377,0.148c-0.063,0.067-0.188,0.137-0.25,0.204
				c-0.063,0.067-0.126,0.134-0.313,0.208c-0.063,0.128-0.125,0.195-0.188,0.261c-0.063,0.067-0.063,0.129-0.125,0.133
				c-7.725,10.093-15.441,20.359-23.143,30.802c-1.186,1.634-1,3.74,0.562,4.762c0.624,0.497,1.374,0.604,2.124,0.526
				c6.56-0.68,13.13-1.232,19.705-1.658c0,1.588,0,3.175,0,4.761c0,1.942,1.503,3.346,3.445,3.233
				c1.942-0.114,3.446-1.69,3.446-3.633c0-1.587,0-3.175,0-4.76c0.209-0.013,0.417-0.021,0.626-0.032
				c1.943-0.098,3.509-1.667,3.509-3.609C224.777,250.466,223.211,248.966,221.268,249.064z M213.75,249.496
				c-4.154,0.269-8.307,0.588-12.454,0.959c4.147-5.527,8.3-11.004,12.454-16.43C213.75,239.182,213.75,244.339,213.75,249.496z
				 M299.839,251.148c-0.208-0.021-0.416-0.043-0.624-0.064c0-8.497,0-16.993,0-25.489c0-0.126-0.063-0.195-0.063-0.32
				c0-0.189,0-0.251-0.063-0.382c0-0.063-0.063-0.194-0.064-0.257c-0.061-0.193-0.061-0.256-0.124-0.388
				c-0.063-0.069-0.125-0.201-0.125-0.264c-0.126-0.199-0.186-0.268-0.249-0.338c-0.064-0.07-0.126-0.201-0.188-0.269
				c-0.063-0.069-0.125-0.138-0.251-0.275c0-0.063-0.124-0.138-0.186-0.144c0.002-0.063-0.063-0.069-0.061-0.069
				c-0.127-0.075-0.189-0.145-0.315-0.219c-0.061-0.069-0.186-0.143-0.311-0.281c-0.064-0.007-0.186-0.082-0.251-0.087
				c-0.126-0.075-0.313-0.093-0.375-0.162c-0.124-0.012-0.188-0.018-0.314-0.092c-0.123-0.013-0.25-0.024-0.374-0.036
				c-0.063-0.006-0.064-0.006-0.124-0.012c-0.063-0.006-0.126-0.012-0.126-0.012c-0.145-0.014-0.291-0.028-0.438-0.042
				c-0.063,0.057-0.189,0.046-0.25,0.04c-0.188,0.045-0.313,0.033-0.375,0.09c-0.125-0.011-0.188,0.046-0.251,0.165
				c-0.188-0.017-0.25,0.04-0.375,0.091c-0.063,0.057-0.186,0.108-0.249,0.165c-0.064,0.057-0.124,0.115-0.315,0.16
				c-0.061,0.119-0.125,0.176-0.186,0.234c-0.061,0.056-0.061,0.118-0.125,0.113c-7.713,8.907-15.436,17.991-23.168,27.249
				c-1.191,1.451-1.003,3.586,0.565,4.848c0.626,0.593,1.378,0.815,2.13,0.854c6.58,0.33,13.156,0.784,19.722,1.366
				c0,1.588,0,3.175,0,4.761c0,1.941,1.501,3.575,3.44,3.76c1.937,0.186,3.438-1.162,3.438-3.103c0-1.588,0-3.175,0-4.76
				c0.208,0.02,0.416,0.043,0.624,0.063c1.938,0.2,3.497-1.13,3.497-3.07C303.336,253.09,301.776,251.35,299.839,251.148z
				 M292.337,250.428c-4.147-0.367-8.3-0.685-12.455-0.951c4.155-4.89,8.308-9.729,12.455-14.518
				C292.337,240.115,292.337,245.271,292.337,250.428z M274.537,207.234c0-2.128-0.71-3.926-2.125-5.387
				c-1.417-1.459-3.086-2.231-5.01-2.308c-0.895-0.035-1.767,0.114-2.612,0.449c-0.843,0.333-1.591,0.81-2.241,1.426
				c-0.649,0.616-1.17,1.39-1.56,2.321c-0.389,0.93-0.585,1.935-0.585,3.012c0,1.974,0.693,3.691,2.076,5.161
				c1.386,1.47,3.085,2.24,5.098,2.322c1.938,0.078,3.582-0.569,4.932-1.95C273.86,210.901,274.537,209.222,274.537,207.234z
				 M269.977,209.835c-0.741,0.667-1.579,0.981-2.515,0.945c-0.909-0.036-1.738-0.428-2.485-1.175
				c-0.748-0.746-1.122-1.69-1.122-2.833c0-1.168,0.371-2.101,1.111-2.795c0.742-0.695,1.58-1.024,2.515-0.986
				c0.91,0.036,1.738,0.429,2.486,1.176c0.747,0.748,1.119,1.708,1.119,2.876C271.086,208.237,270.718,209.166,269.977,209.835z
				 M234.184,213.294c0.071,0.128,0.189,0.252,0.352,0.371c0.162,0.119,0.354,0.177,0.575,0.172
				c0.286-0.006,0.637-0.106,1.053-0.296c0.805-0.355,1.209-0.777,1.209-1.271c0-0.208-0.098-0.543-0.293-1.007
				c-0.598-1.339-1.04-2.349-1.326-3.031c0.976-0.968,1.462-2.185,1.462-3.652c0-0.844-0.168-1.606-0.506-2.288
				c-0.339-0.682-0.767-1.218-1.288-1.609c-0.519-0.39-1.068-0.686-1.647-0.885c-0.579-0.199-1.141-0.291-1.687-0.275
				c-1.403,0.041-2.807,0.087-4.211,0.139c-0.416,0.016-0.747,0.068-0.994,0.154c-0.247,0.088-0.423,0.232-0.526,0.431
				c-0.104,0.199-0.166,0.373-0.186,0.523c-0.019,0.15-0.028,0.374-0.028,0.673c0,3.603,0,7.205,0,10.809
				c0,0.246,0.003,0.43,0.009,0.554c0.007,0.123,0.039,0.271,0.098,0.444c0.058,0.173,0.146,0.302,0.264,0.388
				c0.117,0.087,0.285,0.158,0.506,0.214c0.221,0.057,0.5,0.078,0.838,0.066c0.416-0.015,0.747-0.066,0.995-0.153
				c0.246-0.086,0.422-0.229,0.525-0.427c0.105-0.197,0.167-0.373,0.186-0.522c0.019-0.15,0.029-0.374,0.029-0.673
				c0-0.734,0-1.467,0-2.201c0.819-0.028,1.636-0.053,2.456-0.077c0.202-0.019,0.403-0.038,0.604-0.057
				c0.546,1.283,0.962,2.247,1.249,2.888C234.018,212.967,234.113,213.166,234.184,213.294z M233.219,205.958
				c-0.376,0.295-0.754,0.449-1.131,0.46c-0.831,0.024-1.664,0.05-2.495,0.079c0-1.148,0-2.297,0-3.447
				c0.819-0.027,1.636-0.053,2.456-0.077c0.402-0.012,0.794,0.123,1.17,0.405c0.377,0.282,0.565,0.703,0.565,1.261
				C233.784,205.223,233.596,205.663,233.219,205.958z M248.79,219.676c-4.954-0.018-9.031,2.985-11.665,7.043
				c-2.759,4.063-4.201,9.306-4.264,15.068c0.063,5.699,1.504,10.915,4.264,14.87c2.635,3.896,6.712,6.844,11.665,6.859
				c4.832,0.019,8.97-2.901,11.605-6.778c2.696-3.938,4.2-9.141,4.2-14.842c0-5.761-1.504-11.016-4.2-15.096
				C257.762,222.723,253.622,219.692,248.79,219.676z M254.624,252.736c-1.819,2.667-3.888,3.837-5.833,3.829
				c-1.943-0.008-4.076-1.191-5.957-3.869c-1.757-2.616-3.011-6.605-3.011-11.053c0.001-4.509,1.254-8.474,3.011-11.181
				c1.881-2.646,4.014-3.904,5.957-3.834c1.946-0.056,4.014,1.217,5.833,3.874c1.758,2.72,3.013,6.693,3.013,11.203
				C257.637,246.152,256.382,250.133,254.624,252.736z"/>
			<g>
				<text transform="matrix(1 0 0 1 185.4038 263.1025)"><tspan x="0" y="0" style="fill:#FF0005; font-family:'Quicksand-Bold'; font-size:64.5374px;">4</tspan><tspan x="42.852" y="0" style="fill:#FF0005; font-family:'Quicksand-Bold'; font-size:64.5374px; letter-spacing:-7;">0</tspan><tspan x="80.928" y="0" style="fill:#FF0005; font-family:'Quicksand-Bold'; font-size:64.5374px;">4</tspan></text>
				
					<text transform="matrix(1 0 0 1 206.7114 211.645)" style="fill:#003362; font-family:'FredokaOne-Regular'; font-size:20.0688px; letter-spacing:5;">ERROR</text>
			</g>
			<g>
				<path style="opacity:0.2;" d="M123.522,140.113c6.501-0.29,13.008-0.351,19.511-0.178c11.012,0.277,19.91,10.768,19.909,22.487
					c0.001,3.165-0.666,6.088-1.827,8.678c2.287,4.798,4.573,9.625,6.855,14.48c-4.764-2.116-9.539-4.105-14.317-5.971
					c-3.075,1.873-6.709,2.908-10.62,2.806c-6.503-0.171-13.01-0.111-19.511,0.18c-11.006,0.48-19.891-7.882-19.891-19.626
					C103.631,151.249,112.516,140.593,123.522,140.113z"/>
				<path style="fill:#FF6352;" d="M122.457,138.995h20.79c11.73,0,21.24,9.508,21.24,21.24c0,3.163-0.711,6.155-1.952,8.853
					l7.33,13.759l-15.298-4.664c-3.28,2.074-7.154,3.291-11.321,3.291h-20.79c-11.73,0-21.24-9.51-21.24-21.24
					C101.218,148.503,110.728,138.995,122.457,138.995z"/>
				<g>
					<path style="fill:#F44A40;" d="M143.248,138.995h-2.233l-34.854,34.853c1.728,2.065,3.837,3.799,6.225,5.088l38.503-38.502
						C148.515,139.517,145.945,138.995,143.248,138.995z"/>
					<path style="fill:#F44A40;" d="M162.536,169.087c0.394-0.857,0.729-1.748,1.01-2.661l-14.117,14.117
						c1.829-0.563,3.555-1.358,5.139-2.36l6.54,1.994l4.787-4.786L162.536,169.087z"/>
					<path style="fill:#F44A40;" d="M122.457,138.995c-2.83,0-5.523,0.564-7.992,1.567l-11.679,11.679
						c-1.004,2.47-1.568,5.164-1.568,7.993c0,1.517,0.166,2.995,0.468,4.421l25.661-25.661H122.457z"/>
					<path style="fill:#F44A40;" d="M163.225,153.079c-0.946-2.641-2.395-5.034-4.239-7.073l-35.469,35.469h11.314L163.225,153.079z
						"/>
				</g>
				
					<text transform="matrix(1 0 0 1 115.5684 171.0947)" style="fill:#FFFFFF; font-family:'Quicksand-Bold'; font-size:31.6335px;">:C</text>
			</g>
			<g>
				<g>
					<g style="opacity:0.6;">
						<path style="opacity:0.2;" d="M389.152,95.044c-32.693-2.722-65.531-2.857-98.237-0.404
							c-11.151,0.83-20.169,11.357-20.168,23.082c0,3.164,0.673,6.082,1.851,8.657c-2.318,4.829-4.635,9.671-6.95,14.526
							c4.833-2.115,9.67-4.174,14.513-6.176c3.115,1.785,6.795,2.687,10.755,2.39c32.707-2.453,65.544-2.318,98.237,0.404
							c11.144,0.923,20.157-7.495,20.157-19.23C409.31,106.567,400.296,95.966,389.152,95.044z"/>
					</g>
					<path style="fill:#FF6352;" d="M390.415,92.497H287.18c-11.73,0-21.239,9.509-21.239,21.24c0,3.164,0.711,6.155,1.95,8.854
						l-7.33,13.758l15.299-4.663c3.279,2.073,7.154,3.291,11.32,3.291h103.235c11.73,0,21.239-9.509,21.239-21.24
						C411.654,102.006,402.145,92.497,390.415,92.497z"/>
					<g>
						<path style="fill:#F44A40;" d="M266.524,118.629c0.329,1.375,0.788,2.702,1.366,3.961l-6.824,12.809l42.904-42.903h-11.314
							L266.524,118.629z"/>
						<path style="fill:#F44A40;" d="M328.952,92.497h-11.315l-40.123,40.124c2.709,1.395,5.752,2.227,8.982,2.331L328.952,92.497z"
							/>
						<polygon style="fill:#F44A40;" points="378.916,92.497 367.602,92.497 325.121,134.977 336.433,134.977 						"/>
						<polygon style="fill:#F44A40;" points="300.141,134.977 311.454,134.977 353.933,92.497 342.62,92.497 						"/>
						<path style="fill:#F44A40;" d="M411.315,110.06c-0.517-2.95-1.625-5.694-3.223-8.09l-33.009,33.007h11.312L411.315,110.06z"/>
						<path style="fill:#F44A40;" d="M401.031,95.36c-2.562-1.484-5.454-2.46-8.552-2.759l-42.375,42.375h11.311L401.031,95.36z"/>
					</g>
					<text transform="matrix(1 0 0 1 277.918 126.7109)"><tspan x="0" y="0" style="fill:#FFFFFF; font-family:'Quicksand-Bold'; font-size:35.127px;">S</tspan><tspan x="22.727" y="0" style="fill:#FFFFFF; font-family:'Quicksand-Bold'; font-size:35.127px; letter-spacing:-2;">O</tspan><tspan x="50.477" y="0" style="fill:#FFFFFF; font-family:'Quicksand-Bold'; font-size:35.127px;">RRY!</tspan></text>
				</g>
				<g>
					<path style="fill:#FFFFFF;" d="M425.44,80.333c0.895,0.894,0.895,2.343,0,3.237l-12.224,12.225
						c-0.895,0.894-2.344,0.894-3.237,0l0,0c-0.894-0.894-0.894-2.342,0-3.237l12.225-12.225
						C423.099,79.439,424.548,79.439,425.44,80.333L425.44,80.333z"/>
					<path style="fill:#FFFFFF;" d="M404.766,76.067c1.263,0,2.288,1.024,2.288,2.289l0.001,10.957
						c-0.001,1.265-1.025,2.289-2.289,2.29l0,0c-1.265,0-2.289-1.024-2.288-2.29l-0.001-10.957
						C402.477,77.092,403.501,76.067,404.766,76.067L404.766,76.067z"/>
					<path style="fill:#FFFFFF;" d="M430.058,101.361c0-1.265-1.024-2.29-2.288-2.29l-10.958-0.001
						c-1.265,0.001-2.289,1.024-2.289,2.289l0,0c-0.001,1.266,1.024,2.29,2.288,2.29l10.959,0
						C429.033,103.649,430.058,102.626,430.058,101.361L430.058,101.361z"/>
				</g>
			</g>
			<g>
				<g>
					<path style="opacity:0.6;fill:#00BEC6;" d="M352.804,370.431c0-12.78-9.958-24.334-22.27-25.339
						c-36.115-2.966-72.395-3.114-108.526-0.44c-4.376,0.324-8.442,1.992-11.882,4.57c-5.349-1.207-10.695-2.353-16.035-3.436
						c2.559,4.705,5.119,9.425,7.68,14.158c-1.3,3.073-2.046,6.413-2.046,9.863c0,0.423,0.014,0.845,0.036,1.261
						c0,15.299,0,30.6,0,45.898c0,6.3,4.909,10.875,10.973,10.328c43.568-3.935,87.392-3.762,130.938,0.519
						c6.059,0.594,10.968-3.94,10.968-10.238c0-14.789,0-29.577,0-44.366C352.742,372.304,352.804,371.377,352.804,370.431z"/>
					<path style="fill:#FFE400;" d="M356.189,365.52c0-12.786-10.364-23.149-23.148-23.149H220.539
						c-4.542,0-8.764,1.326-12.338,3.588l-16.67-5.083l7.987,14.995c-1.351,2.94-2.127,6.199-2.127,9.649
						c0,0.423,0.015,0.846,0.036,1.264v45.899c0,6.298,5.106,11.405,11.405,11.405h135.78c6.298,0,11.405-5.107,11.405-11.405
						v-44.365C356.127,367.398,356.189,366.467,356.189,365.52z"/>
					<g>
						<polygon style="fill:#FFCC00;" points="328.707,424.088 246.99,342.37 234.663,342.37 316.379,424.088 						"/>
						<polygon style="fill:#FFCC00;" points="356.017,396.946 301.439,342.37 289.111,342.37 356.017,409.276 						"/>
						<path style="fill:#FFCC00;" d="M344.611,424.088c3.129,0,5.96-1.261,8.02-3.302l-78.416-78.416h-12.328l81.716,81.718H344.611
							z"/>
						<polygon style="fill:#FFCC00;" points="356.017,369.723 328.664,342.37 316.335,342.37 356.017,382.051 						"/>
						<path style="fill:#FFCC00;" d="M289.153,424.088h12.329l-81.689-81.691c-0.003,0-0.007,0.003-0.011,0.003
							c-1.745,0.057-3.438,0.309-5.063,0.734c-0.02,0.004-0.04,0.009-0.059,0.015c-0.398,0.104-0.792,0.219-1.181,0.347
							c-0.01,0.002-0.021,0.005-0.03,0.01c-1.171,0.38-2.301,0.85-3.383,1.402c-0.02,0.011-0.041,0.022-0.061,0.032L289.153,424.088
							z"/>
						<path style="fill:#FFCC00;" d="M197.427,403.658v9.024c0,1.434,0.276,2.8,0.759,4.065l6.582,6.582
							c1.264,0.481,2.63,0.759,4.063,0.759h9.026L197.427,403.658z"/>
						<path style="fill:#FFCC00;" d="M199.518,355.87c-0.313,0.684-0.594,1.388-0.843,2.104c-0.002,0.004-0.002,0.007-0.004,0.01
							c-0.249,0.72-0.463,1.455-0.643,2.204l63.899,63.9h12.331l-82.176-82.176L199.518,355.87z"/>
						<polygon style="fill:#FFCC00;" points="197.427,376.482 197.427,388.813 232.702,424.088 245.032,424.088 						"/>
					</g>
					<text transform="matrix(1 0 0 1 212.4707 368.2236)"><tspan x="0" y="0" style="fill:#F91A6F; font-family:'Quicksand-Regular'; font-size:14.337px;">THE PAGE YOU</tspan><tspan x="0" y="21.005" style="fill:#F91A6F; font-family:'Quicksand-Regular'; font-size:14.337px;">REQUESTED</tspan><tspan x="0" y="42.011" style="fill:#F91A6F; font-family:'Quicksand-Regular'; font-size:14.337px;">WAS NOT  FOUND!</tspan></text>
				</g>
			</g>
			<path style="opacity:0.2;" d="M310.77,180.171c-34.044-34.042-89.437-34.044-123.48,0
				c-31.454,31.454-33.822,81.121-7.154,115.348c-0.101,0.094-0.206,0.177-0.304,0.274l-36.811,36.809
				c-0.265-0.064-0.531-0.13-0.798-0.184c-0.153-0.03-0.308-0.053-0.461-0.081c-0.453-0.08-0.907-0.146-1.362-0.196
				c-0.141-0.017-0.28-0.034-0.419-0.049c-0.55-0.049-1.102-0.072-1.654-0.078c-0.145,0-0.287,0-0.432,0
				c-0.568,0.005-1.137,0.029-1.703,0.082c-0.086,0.007-0.172,0.021-0.257,0.028c-0.275,0.029-0.549,0.057-0.822,0.096l-0.027,0.027
				c-1.648,0.241-3.274,0.656-4.836,1.292l0.002-0.001c-0.196,0.08-0.383,0.183-0.577,0.269c-0.424,0.188-0.848,0.371-1.262,0.588
				c-0.136,0.072-0.264,0.161-0.398,0.235c-0.463,0.257-0.925,0.516-1.371,0.811c-0.105,0.069-0.202,0.153-0.305,0.224
				c-0.467,0.321-0.931,0.648-1.376,1.013c-0.543,0.443-1.071,0.919-1.577,1.426l-54,54.001c-0.507,0.506-0.982,1.032-1.427,1.577
				c-0.31,0.38-0.585,0.78-0.864,1.177c-0.121,0.169-0.258,0.33-0.372,0.505c-0.277,0.418-0.519,0.853-0.762,1.286
				c-0.091,0.162-0.199,0.318-0.286,0.482c-0.214,0.407-0.392,0.826-0.579,1.243c-0.088,0.201-0.195,0.394-0.276,0.597l0.001-0.001
				c-0.636,1.561-1.051,3.189-1.291,4.835l-0.028,0.025c-0.039,0.27-0.065,0.538-0.093,0.807c-0.011,0.094-0.024,0.186-0.033,0.28
				c-0.051,0.563-0.075,1.128-0.081,1.692c-0.002,0.147-0.001,0.293,0,0.439c0.006,0.551,0.029,1.101,0.078,1.647
				c0.013,0.143,0.033,0.283,0.049,0.425c0.05,0.454,0.116,0.907,0.196,1.359c0.027,0.153,0.048,0.309,0.08,0.461
				c0.103,0.513,0.231,1.021,0.372,1.526c0.053,0.188,0.107,0.372,0.165,0.558c0.029,0.097,0.054,0.192,0.084,0.288l0.012-0.012
				c0.261,0.798,0.576,1.582,0.936,2.353c0.038,0.081,0.075,0.164,0.114,0.246c0.166,0.341,0.337,0.679,0.521,1.015
				c0.198,0.359,0.409,0.714,0.629,1.063c0.126,0.199,0.256,0.396,0.389,0.591c0.3,0.441,0.615,0.873,0.953,1.297
				c0.077,0.097,0.159,0.188,0.237,0.282c0.401,0.482,0.821,0.957,1.274,1.408c8.134,8.134,21.319,8.133,29.453,0l54-54
				c0.505-0.504,0.976-1.027,1.417-1.566c0.16-0.196,0.294-0.403,0.444-0.604c0.268-0.352,0.542-0.7,0.784-1.064
				c0.18-0.27,0.332-0.555,0.496-0.831c0.183-0.308,0.378-0.605,0.542-0.918c0.177-0.334,0.324-0.681,0.481-1.021
				c0.123-0.267,0.259-0.527,0.37-0.797c0.163-0.397,0.293-0.801,0.431-1.203c0.075-0.224,0.166-0.442,0.234-0.668
				c0.138-0.457,0.245-0.921,0.351-1.386c0.04-0.176,0.093-0.348,0.128-0.522c0.104-0.518,0.177-1.038,0.241-1.561
				c0.016-0.126,0.041-0.247,0.054-0.374c0.06-0.571,0.089-1.142,0.103-1.715c0.001-0.077,0.01-0.154,0.011-0.23
				c0.008-0.614-0.017-1.229-0.063-1.843c-0.003-0.034-0.002-0.068-0.004-0.101c-0.087-1.088-0.271-2.163-0.528-3.227l36.818-36.818
				c0.098-0.096,0.182-0.202,0.275-0.304c34.227,26.67,83.894,24.302,115.348-7.153C344.814,269.608,344.814,214.215,310.77,180.171
				z M249.065,313.443c-40.089,0-72.589-32.5-72.589-72.59c0-40.091,32.5-72.589,72.589-72.589c40.09,0,72.589,32.498,72.589,72.589
				C321.654,280.943,289.155,313.443,249.065,313.443z"/>
			<g>
				<g>
					<path style="fill:#003362;" d="M310.77,171.706c-34.044-34.044-89.437-34.044-123.48,0
						c-34.044,34.043-34.044,89.438-0.001,123.482c34.044,34.04,89.437,34.04,123.481-0.001
						C344.814,261.144,344.814,205.749,310.77,171.706z M198.561,283.914c-27.83-27.829-27.83-73.109-0.001-100.938
						c27.83-27.83,73.11-27.83,100.938,0c27.83,27.829,27.83,73.111,0,100.939C271.671,311.743,226.39,311.742,198.561,283.914z"/>
					<g>
						<path style="opacity:0.2;fill:#FFFFFF;" d="M197.748,182.163c-28.323,28.323-28.323,74.241,0,102.565
							c28.323,28.322,74.243,28.323,102.565,0c28.322-28.324,28.321-74.244,0-102.565C271.991,153.84,226.07,153.84,197.748,182.163
							z"/>
						<path style="opacity:0.2;fill:#FFFFFF;" d="M204.378,188.794c-24.66,24.66-24.66,64.641,0,89.303
							c24.661,24.66,64.643,24.661,89.305,0c24.661-24.662,24.66-64.645,0-89.304C269.021,164.134,229.04,164.134,204.378,188.794z"
							/>
						<g>
							<path style="opacity:0.2;fill:#FFFFFF;" d="M224.8,183.002c-9.804,9.804-9.804,25.699,0,35.504
								c9.804,9.804,25.7,9.804,35.504-0.001c9.802-9.804,9.803-25.7,0-35.503C250.5,173.198,234.604,173.198,224.8,183.002z"/>
							<path style="opacity:0.2;fill:#FFFFFF;" d="M255.908,202.842c-4.901,4.901-4.901,12.85,0,17.752
								c4.902,4.902,12.849,4.902,17.751,0c4.903-4.902,4.903-12.851,0-17.752C268.757,197.939,260.81,197.939,255.908,202.842z"/>
							<path style="opacity:0.2;fill:#FFFFFF;" d="M229.436,271.269c-3.691,3.69-3.688,9.675,0.001,13.363
								c3.691,3.69,9.671,3.69,13.363,0c3.691-3.69,3.692-9.673,0.001-13.361C239.111,267.578,233.128,267.577,229.436,271.269z"/>
						</g>
					</g>
					<path style="fill:#002352;" d="M154.028,343.764c-4.227,4.227-11.085,4.228-15.314,0l0,0c-4.23-4.229-4.23-11.088-0.002-15.316
						l41.12-41.12c4.228-4.228,11.085-4.228,15.314,0.001l0,0c4.23,4.229,4.229,11.087,0.001,15.315L154.028,343.764z"/>
					<g style="opacity:0.1;">
						<path style="fill:#FFFFFF;" d="M196.056,288.377c-0.279-0.363-0.576-0.716-0.909-1.049c-1.541-1.54-3.43-2.513-5.413-2.931
							l-50.124,50.124l6.129,4.172L196.056,288.377z"/>
						<path style="fill:#FFFFFF;" d="M179.833,287.327l-41.12,41.12c-0.911,0.91-1.612,1.947-2.13,3.048l0.64,0.64l47.644-47.645
							C183.022,284.947,181.274,285.884,179.833,287.327z"/>
						<path style="fill:#FFFFFF;" d="M197.381,290.596l-50.849,50.849l1.152,1.151l50.289-50.289
							C197.824,291.724,197.627,291.152,197.381,290.596z"/>
					</g>
					<path style="opacity:0.4;fill:#001343;" d="M198.273,294.013L159.6,332.685c-1.031-2.054-2.398-3.981-4.112-5.696
						c-2.785-2.784-6.128-4.66-9.667-5.65l-6.165,6.164l0,0l-0.943,0.944c-4.229,4.229-4.229,11.087,0.002,15.316
						c4.229,4.228,11.086,4.227,15.314,0l41.12-41.12C197.511,300.282,198.55,297.1,198.273,294.013z"/>
					<path style="fill:#FFE400;" d="M98.837,413.092c-8.133,8.133-21.319,8.134-29.453,0l0,0
						c-8.134-8.134-8.134-21.321-0.001-29.454l54-54.001c8.132-8.132,21.319-8.132,29.453,0.001l0,0
						c8.135,8.134,8.134,21.321,0,29.452L98.837,413.092z"/>
					<path style="fill:#FFCE00;" d="M153.253,330.098c2.554,7.313,0.933,15.759-4.911,21.603l-54.001,53.999
						c-8.133,8.134-21.318,8.135-29.453,0c-0.148-0.147-0.273-0.308-0.416-0.458c1.001,2.865,2.623,5.563,4.912,7.851
						c8.134,8.134,21.319,8.133,29.453,0l54-54.002C160.823,351.106,160.949,338.261,153.253,330.098z"/>
					<g>
						<path style="fill:#FFFF3F;" d="M130.251,325.072c-2.499,1.017-4.839,2.537-6.866,4.564l-54,54.001
							c-2.028,2.027-3.549,4.367-4.565,6.868L130.251,325.072z"/>
						<path style="fill:#FFFF3F;" d="M135.113,323.753l-71.612,71.613c-0.458,3.166-0.181,6.415,0.819,9.483l80.275-80.275
							C141.529,323.574,138.279,323.297,135.113,323.753z"/>
					</g>
					<g>
						<path style="fill:#FFFF3F;" d="M87.777,401.588c-1.775,1.775-4.653,1.775-6.428,0.001l0,0
							c-1.775-1.775-1.775-4.653-0.001-6.429l9.385-9.386c1.774-1.774,4.654-1.774,6.43,0l0,0c1.775,1.775,1.773,4.653-0.001,6.429
							L87.777,401.588z"/>
						<path style="fill:#FFFF3F;" d="M106.085,383.28c-1.775,1.774-4.654,1.775-6.429,0.001l0,0c-1.776-1.775-1.776-4.655,0-6.431
							l39.115-39.115c1.774-1.775,4.653-1.775,6.429,0l0,0c1.775,1.776,1.774,4.654-0.001,6.429L106.085,383.28z"/>
					</g>
					<g style="opacity:0.2;">
						<path style="fill:#FFFFFF;" d="M157.427,322.328c-0.909,0.909-2.384,0.909-3.293,0l0,0c-0.91-0.909-0.91-2.383,0-3.294
							l4.808-4.807c0.91-0.91,2.384-0.91,3.294,0l0,0c0.91,0.907,0.91,2.384,0,3.293L157.427,322.328z"/>
						<path style="fill:#FFFFFF;" d="M166.808,312.948c-0.91,0.908-2.386,0.909-3.294,0.001l0,0c-0.911-0.91-0.911-2.386,0-3.294
							l20.041-20.041c0.909-0.91,2.383-0.91,3.293,0l0,0c0.909,0.908,0.909,2.384,0,3.294L166.808,312.948z"/>
					</g>
				</g>
				<g style="opacity:0.2;">
					<path style="fill:#FFFFFF;" d="M249.111,316.17c-11.821,0-23.693-2.545-34.822-7.685c-1.326-0.613-1.905-2.184-1.292-3.51
						c0.613-1.327,2.186-1.907,3.511-1.293c23.885,11.033,51.422,9.298,73.659-4.641c1.239-0.776,2.872-0.402,3.647,0.836
						c0.776,1.238,0.401,2.87-0.836,3.647C279.583,311.918,264.391,316.17,249.111,316.17z M298.266,299.239
						c-0.787,0-1.566-0.35-2.09-1.018c-0.896-1.152-0.691-2.815,0.461-3.715c2.497-1.946,4.906-4.079,7.163-6.337
						c1.034-1.032,2.709-1.032,3.74,0c1.034,1.034,1.034,2.709,0,3.743c-2.408,2.408-4.984,4.687-7.648,6.768
						C299.408,299.056,298.834,299.239,298.266,299.239z M176.82,270.631c-0.988,0-1.936-0.556-2.39-1.507
						c-15.085-31.604-8.602-69.456,16.133-94.19c19.005-19.008,46.22-27.588,72.805-22.953c1.439,0.251,2.403,1.621,2.152,3.061
						c-0.251,1.439-1.618,2.403-3.061,2.152c-24.884-4.336-50.366,3.691-68.154,21.481c-23.153,23.152-29.221,58.585-15.1,88.169
						c0.629,1.32,0.07,2.897-1.248,3.527C177.59,270.547,177.202,270.631,176.82,270.631z M305.671,179.449
						c-0.678,0-1.354-0.258-1.871-0.774c-6.39-6.393-13.751-11.56-21.873-15.357c-1.324-0.62-1.896-2.193-1.275-3.518
						c0.617-1.324,2.195-1.896,3.516-1.276c8.683,4.06,16.548,9.581,23.373,16.41c1.034,1.032,1.034,2.707,0,3.741
						C307.025,179.191,306.349,179.449,305.671,179.449z"/>
				</g>
				<polygon style="opacity:0.1;" points="292.851,175.65 284.825,188.727 288.837,193.342 275.241,199.165 280.565,205.055 
					269.678,213.694 248.078,241.613 270.463,214.192 280.717,203.263 275.747,197.672 286.774,193.014 283.512,188.82 
					292.203,175.161 				"/>
				<g>
					<polygon style="opacity:0.1;" points="214.623,297.305 231.189,287.399 231.189,276.133 242.552,273.872 245.569,264.604 
						196.056,225.859 201.802,215.775 197.972,210.124 187.531,207.185 180.525,209.585 180.956,208.387 188.916,208.387 
						196.056,208.387 200.67,211.645 203.609,217.132 193.89,225.859 196.268,228.66 228.476,249.231 229.606,256.24 
						242.552,264.604 241.136,272.289 230.059,277.951 231.189,288.931 216.316,298.19 					"/>
					<polygon style="opacity:0.1;" points="277.336,300.235 273.689,295.573 273.689,287.399 267.656,282.689 260.125,276.81 
						249.029,284.156 253.568,292.86 245.569,296.593 246.773,305.932 248.078,305.932 245.569,294.013 254.474,292.86 
						252.231,284.156 259.899,277.951 256.959,270.479 251.082,267.542 245.569,264.604 242.552,262.242 258.769,270.029 
						259.944,280.201 270.463,286.08 271.651,296.593 279.504,299.28 					"/>
				</g>
			</g>
		</g>
	</g>
</g>
<g id="DESIGNED_BY_FREEPIK">
	<g>
		<g>
			<path style="fill:#FFFFFF;" d="M179.442,485.762v-0.16c-0.219,0.25-0.434,0.453-0.647,0.609
				c-0.212,0.158-0.442,0.277-0.691,0.357c-0.249,0.084-0.519,0.123-0.813,0.123c-0.39,0-0.751-0.082-1.082-0.246
				c-0.332-0.166-0.618-0.402-0.861-0.707c-0.243-0.307-0.426-0.664-0.551-1.078c-0.125-0.414-0.188-0.861-0.188-1.34
				c0-1.018,0.249-1.811,0.745-2.379c0.497-0.568,1.15-0.852,1.961-0.852c0.468,0,0.864,0.08,1.185,0.24
				c0.322,0.162,0.636,0.41,0.942,0.742v-2.4c0-0.334,0.066-0.586,0.2-0.758c0.132-0.17,0.322-0.256,0.568-0.256
				c0.246,0,0.436,0.078,0.569,0.236c0.133,0.156,0.2,0.387,0.2,0.693v7.174c0,0.311-0.071,0.543-0.214,0.697
				c-0.143,0.154-0.328,0.232-0.555,0.232c-0.222,0-0.405-0.08-0.551-0.24C179.514,486.289,179.442,486.06,179.442,485.762z
				 M176.242,483.373c0,0.442,0.068,0.817,0.205,1.125c0.137,0.311,0.325,0.545,0.563,0.701c0.238,0.156,0.499,0.236,0.781,0.236
				c0.285,0,0.546-0.076,0.784-0.225c0.236-0.148,0.424-0.377,0.565-0.686c0.142-0.307,0.212-0.693,0.212-1.152
				c0-0.433-0.07-0.807-0.212-1.119c-0.141-0.311-0.331-0.549-0.572-0.715c-0.241-0.164-0.503-0.246-0.79-0.246
				c-0.298,0-0.564,0.084-0.798,0.254c-0.235,0.168-0.416,0.41-0.545,0.727C176.306,482.59,176.242,482.955,176.242,483.373z"/>
			<path style="fill:#FFFFFF;" d="M186.615,483.785h-3.181c0.004,0.367,0.078,0.693,0.224,0.977
				c0.145,0.281,0.337,0.494,0.578,0.637c0.241,0.145,0.505,0.215,0.796,0.215c0.194,0,0.372-0.023,0.533-0.068
				c0.161-0.047,0.317-0.117,0.468-0.215c0.151-0.098,0.29-0.201,0.417-0.313c0.128-0.111,0.292-0.264,0.495-0.453
				c0.084-0.072,0.202-0.108,0.358-0.108c0.166,0,0.301,0.047,0.404,0.137c0.103,0.092,0.156,0.221,0.156,0.389
				c0,0.147-0.059,0.316-0.173,0.514c-0.117,0.197-0.29,0.387-0.522,0.566c-0.233,0.182-0.524,0.33-0.876,0.449
				c-0.351,0.121-0.755,0.18-1.212,0.18c-1.044,0-1.857-0.299-2.436-0.895c-0.58-0.596-0.87-1.404-0.87-2.424
				c0-0.48,0.071-0.928,0.215-1.338c0.143-0.412,0.352-0.764,0.625-1.059c0.275-0.293,0.612-0.518,1.014-0.676
				c0.401-0.156,0.847-0.234,1.335-0.234c0.635,0,1.181,0.133,1.635,0.402c0.455,0.267,0.796,0.613,1.022,1.039
				c0.226,0.424,0.34,0.857,0.34,1.299c0,0.408-0.117,0.674-0.351,0.795S187.04,483.785,186.615,483.785z M183.434,482.861h2.95
				c-0.039-0.557-0.19-0.975-0.45-1.25c-0.26-0.275-0.602-0.414-1.027-0.414c-0.406,0-0.739,0.141-0.999,0.42
				C183.647,481.897,183.489,482.313,183.434,482.861z"/>
			<path style="fill:#FFFFFF;" d="M194.027,484.565c0,0.449-0.108,0.834-0.327,1.152c-0.218,0.32-0.542,0.563-0.969,0.729
				c-0.427,0.164-0.946,0.246-1.558,0.246c-0.584,0-1.084-0.09-1.502-0.268c-0.417-0.18-0.725-0.402-0.923-0.67
				c-0.198-0.27-0.297-0.537-0.297-0.809c0-0.18,0.063-0.332,0.19-0.459c0.127-0.127,0.288-0.189,0.483-0.189
				c0.17,0,0.301,0.041,0.393,0.125c0.092,0.082,0.179,0.201,0.262,0.352c0.167,0.291,0.366,0.506,0.599,0.648
				c0.232,0.143,0.549,0.215,0.951,0.215c0.326,0,0.593-0.072,0.802-0.217c0.208-0.146,0.312-0.313,0.312-0.498
				c0-0.287-0.107-0.494-0.325-0.625c-0.217-0.131-0.573-0.258-1.069-0.377c-0.56-0.139-1.016-0.285-1.368-0.438
				c-0.352-0.152-0.633-0.353-0.843-0.603c-0.211-0.252-0.316-0.559-0.316-0.924c0-0.326,0.097-0.635,0.292-0.924
				c0.195-0.289,0.482-0.522,0.862-0.695c0.378-0.172,0.836-0.26,1.373-0.26c0.421,0,0.799,0.045,1.134,0.133
				c0.336,0.086,0.617,0.205,0.841,0.351c0.224,0.147,0.395,0.309,0.512,0.488c0.117,0.178,0.175,0.354,0.175,0.525
				c0,0.186-0.063,0.338-0.187,0.457c-0.125,0.119-0.303,0.18-0.534,0.18c-0.166,0-0.309-0.047-0.426-0.145
				c-0.117-0.094-0.251-0.236-0.402-0.428c-0.122-0.158-0.267-0.285-0.435-0.381c-0.167-0.096-0.393-0.143-0.679-0.143
				c-0.294,0-0.538,0.061-0.733,0.188c-0.195,0.125-0.293,0.279-0.293,0.467c0,0.172,0.072,0.311,0.214,0.42
				c0.144,0.109,0.336,0.201,0.579,0.271c0.242,0.07,0.575,0.158,1.001,0.262c0.504,0.123,0.916,0.271,1.236,0.441
				c0.32,0.17,0.563,0.373,0.728,0.605C193.945,484.002,194.027,484.266,194.027,484.565z"/>
			<path style="fill:#FFFFFF;" d="M195.689,479.32c-0.226,0-0.419-0.068-0.581-0.209c-0.161-0.137-0.242-0.334-0.242-0.59
				c0-0.231,0.083-0.42,0.247-0.568c0.165-0.15,0.357-0.225,0.575-0.225c0.211,0,0.398,0.068,0.56,0.203
				c0.163,0.137,0.245,0.332,0.245,0.59c0,0.252-0.08,0.447-0.239,0.588C196.097,479.25,195.908,479.32,195.689,479.32z
				 M196.494,481.002v4.699c0,0.326-0.077,0.574-0.232,0.74c-0.155,0.166-0.351,0.25-0.59,0.25s-0.433-0.086-0.581-0.256
				c-0.149-0.172-0.224-0.416-0.224-0.734v-4.652c0-0.322,0.074-0.564,0.224-0.727c0.148-0.164,0.342-0.246,0.581-0.246
				s0.435,0.082,0.59,0.246C196.416,480.484,196.494,480.711,196.494,481.002z"/>
			<path style="fill:#FFFFFF;" d="M203.62,481.27v4.725c0,0.541-0.058,1.006-0.174,1.395c-0.114,0.389-0.299,0.711-0.554,0.965
				c-0.253,0.254-0.587,0.443-0.998,0.566c-0.411,0.123-0.922,0.186-1.535,0.186c-0.56,0-1.061-0.08-1.501-0.236
				c-0.44-0.156-0.78-0.359-1.019-0.607c-0.238-0.248-0.358-0.504-0.358-0.766c0-0.199,0.068-0.361,0.203-0.486
				c0.135-0.125,0.298-0.188,0.489-0.188c0.238,0,0.447,0.105,0.626,0.316c0.087,0.107,0.177,0.215,0.271,0.324
				c0.094,0.109,0.197,0.203,0.31,0.281c0.113,0.076,0.249,0.135,0.408,0.172c0.159,0.037,0.343,0.057,0.548,0.057
				c0.422,0,0.748-0.059,0.98-0.176c0.233-0.117,0.396-0.281,0.489-0.492c0.093-0.209,0.148-0.436,0.165-0.676
				c0.016-0.24,0.027-0.627,0.035-1.16c-0.251,0.352-0.539,0.617-0.867,0.801c-0.327,0.182-0.718,0.273-1.17,0.273
				c-0.544,0-1.02-0.139-1.427-0.418c-0.407-0.277-0.721-0.666-0.939-1.168c-0.218-0.5-0.327-1.078-0.327-1.732
				c0-0.488,0.066-0.932,0.199-1.324c0.134-0.393,0.323-0.725,0.569-0.994c0.246-0.272,0.53-0.475,0.852-0.611
				c0.322-0.137,0.675-0.205,1.061-0.205c0.461,0,0.86,0.088,1.198,0.264c0.337,0.178,0.651,0.455,0.941,0.832v-0.221
				c0-0.281,0.069-0.5,0.208-0.656c0.139-0.154,0.318-0.232,0.537-0.232c0.314,0,0.522,0.103,0.625,0.309
				C203.568,480.588,203.62,480.885,203.62,481.27z M198.906,483.33c0,0.66,0.144,1.158,0.432,1.496
				c0.288,0.338,0.661,0.508,1.118,0.508c0.27,0,0.525-0.074,0.765-0.219c0.241-0.145,0.437-0.363,0.588-0.654
				c0.15-0.293,0.226-0.646,0.226-1.064c0-0.662-0.146-1.18-0.438-1.549c-0.293-0.369-0.677-0.555-1.154-0.555
				c-0.465,0-0.837,0.178-1.117,0.531C199.046,482.176,198.906,482.68,198.906,483.33z"/>
			<path style="fill:#FFFFFF;" d="M206.206,480.977v0.197c0.285-0.377,0.598-0.654,0.938-0.832c0.34-0.176,0.729-0.266,1.171-0.266
				c0.429,0,0.812,0.094,1.15,0.281c0.337,0.188,0.59,0.451,0.756,0.791c0.108,0.199,0.177,0.414,0.209,0.645
				c0.032,0.23,0.049,0.525,0.049,0.883v3.025c0,0.326-0.075,0.574-0.224,0.74c-0.149,0.166-0.342,0.25-0.581,0.25
				c-0.243,0-0.439-0.086-0.59-0.256c-0.151-0.172-0.226-0.416-0.226-0.734v-2.711c0-0.535-0.075-0.945-0.224-1.23
				c-0.149-0.283-0.445-0.426-0.891-0.426c-0.29,0-0.554,0.086-0.792,0.26c-0.238,0.174-0.414,0.41-0.524,0.713
				c-0.079,0.242-0.119,0.693-0.119,1.357v2.037c0,0.33-0.077,0.578-0.23,0.744c-0.152,0.164-0.35,0.246-0.592,0.246
				c-0.235,0-0.427-0.086-0.579-0.256c-0.15-0.172-0.226-0.416-0.226-0.734v-4.699c0-0.311,0.068-0.543,0.203-0.695
				c0.135-0.152,0.32-0.23,0.554-0.23c0.143,0,0.272,0.035,0.388,0.103c0.114,0.066,0.207,0.168,0.277,0.303
				C206.17,480.617,206.206,480.783,206.206,480.977z"/>
			<path style="fill:#FFFFFF;" d="M216.101,483.785h-3.181c0.003,0.367,0.078,0.693,0.223,0.977
				c0.145,0.281,0.338,0.494,0.579,0.637c0.239,0.145,0.505,0.215,0.795,0.215c0.195,0,0.373-0.023,0.534-0.068
				c0.16-0.047,0.316-0.117,0.468-0.215c0.15-0.098,0.289-0.201,0.417-0.313c0.126-0.111,0.291-0.264,0.494-0.453
				c0.083-0.072,0.202-0.108,0.358-0.108c0.167,0,0.301,0.047,0.405,0.137c0.104,0.092,0.155,0.221,0.155,0.389
				c0,0.147-0.058,0.316-0.172,0.514c-0.116,0.197-0.289,0.387-0.522,0.566c-0.233,0.182-0.524,0.33-0.876,0.449
				c-0.352,0.121-0.756,0.18-1.212,0.18c-1.045,0-1.857-0.299-2.438-0.895c-0.579-0.596-0.87-1.404-0.87-2.424
				c0-0.48,0.071-0.928,0.214-1.338c0.143-0.412,0.352-0.764,0.626-1.059c0.273-0.293,0.611-0.518,1.012-0.676
				c0.401-0.156,0.847-0.234,1.335-0.234c0.635,0,1.18,0.133,1.635,0.402c0.455,0.267,0.795,0.613,1.022,1.039
				c0.226,0.424,0.34,0.857,0.34,1.299c0,0.408-0.118,0.674-0.352,0.795S216.527,483.785,216.101,483.785z M212.92,482.861h2.949
				c-0.04-0.557-0.19-0.975-0.45-1.25c-0.261-0.275-0.603-0.414-1.028-0.414c-0.406,0-0.739,0.141-0.999,0.42
				C213.133,481.897,212.976,482.313,212.92,482.861z"/>
			<path style="fill:#FFFFFF;" d="M222.732,485.762v-0.16c-0.218,0.25-0.434,0.453-0.646,0.609
				c-0.213,0.158-0.443,0.277-0.691,0.357c-0.248,0.084-0.519,0.123-0.813,0.123c-0.39,0-0.75-0.082-1.082-0.246
				c-0.332-0.166-0.619-0.402-0.861-0.707c-0.243-0.307-0.426-0.664-0.551-1.078c-0.126-0.414-0.189-0.861-0.189-1.34
				c0-1.018,0.249-1.811,0.745-2.379c0.497-0.568,1.15-0.852,1.96-0.852c0.469,0,0.864,0.08,1.186,0.24
				c0.322,0.162,0.636,0.41,0.941,0.742v-2.4c0-0.334,0.067-0.586,0.2-0.758c0.133-0.17,0.324-0.256,0.57-0.256
				c0.246,0,0.435,0.078,0.569,0.236c0.133,0.156,0.2,0.387,0.2,0.693v7.174c0,0.311-0.071,0.543-0.214,0.697
				c-0.144,0.154-0.327,0.232-0.554,0.232c-0.223,0-0.407-0.08-0.551-0.24C222.805,486.289,222.732,486.06,222.732,485.762z
				 M219.533,483.373c0,0.442,0.068,0.817,0.206,1.125c0.136,0.311,0.325,0.545,0.563,0.701c0.238,0.156,0.498,0.236,0.78,0.236
				c0.287,0,0.548-0.076,0.784-0.225c0.236-0.148,0.426-0.377,0.566-0.686c0.142-0.307,0.212-0.693,0.212-1.152
				c0-0.433-0.07-0.807-0.212-1.119c-0.14-0.311-0.331-0.549-0.571-0.715c-0.242-0.164-0.504-0.246-0.791-0.246
				c-0.297,0-0.563,0.084-0.798,0.254c-0.234,0.168-0.417,0.41-0.545,0.727C219.597,482.59,219.533,482.955,219.533,483.373z"/>
			<path style="fill:#FFFFFF;" d="M229.381,478.588v2.484c0.306-0.318,0.618-0.561,0.936-0.73c0.317-0.168,0.711-0.252,1.18-0.252
				c0.54,0,1.013,0.127,1.421,0.383c0.406,0.258,0.722,0.629,0.947,1.115c0.225,0.486,0.337,1.064,0.337,1.732
				c0,0.492-0.064,0.943-0.189,1.353c-0.125,0.412-0.307,0.768-0.545,1.07c-0.238,0.301-0.528,0.535-0.867,0.701
				c-0.34,0.164-0.714,0.246-1.123,0.246c-0.25,0-0.486-0.029-0.706-0.09c-0.221-0.059-0.409-0.137-0.564-0.234
				c-0.154-0.098-0.287-0.197-0.395-0.301c-0.109-0.104-0.254-0.26-0.433-0.465v0.16c0,0.307-0.074,0.537-0.221,0.695
				c-0.146,0.156-0.333,0.234-0.56,0.234c-0.23,0-0.414-0.078-0.551-0.234c-0.137-0.158-0.205-0.389-0.205-0.695v-7.103
				c0-0.328,0.066-0.578,0.199-0.746c0.133-0.17,0.319-0.254,0.557-0.254c0.251,0,0.444,0.08,0.579,0.24
				C229.314,478.06,229.381,478.289,229.381,478.588z M229.459,483.42c0,0.648,0.148,1.145,0.444,1.492
				c0.295,0.348,0.684,0.523,1.165,0.523c0.409,0,0.762-0.178,1.058-0.535c0.296-0.355,0.444-0.863,0.444-1.527
				c0-0.43-0.061-0.799-0.184-1.109c-0.124-0.309-0.298-0.549-0.524-0.717c-0.227-0.17-0.491-0.254-0.793-0.254
				c-0.31,0-0.587,0.084-0.828,0.254c-0.242,0.168-0.433,0.412-0.572,0.732C229.528,482.598,229.459,482.978,229.459,483.42z"/>
			<path style="fill:#FFFFFF;" d="M236.311,486.895l0.149-0.363l-2.002-5.041c-0.123-0.291-0.185-0.502-0.185-0.633
				c0-0.139,0.037-0.268,0.108-0.387c0.072-0.119,0.17-0.215,0.295-0.285c0.126-0.072,0.255-0.109,0.39-0.109
				c0.234,0,0.411,0.076,0.531,0.225c0.12,0.148,0.224,0.361,0.316,0.641l1.376,4.004l1.305-3.725
				c0.103-0.301,0.197-0.537,0.281-0.709c0.083-0.17,0.171-0.285,0.265-0.344c0.093-0.061,0.225-0.092,0.396-0.092
				c0.124,0,0.241,0.033,0.354,0.1c0.113,0.066,0.2,0.154,0.262,0.266c0.061,0.111,0.093,0.228,0.093,0.352
				c-0.017,0.074-0.042,0.182-0.078,0.322c-0.036,0.137-0.08,0.279-0.131,0.422l-2.121,5.555c-0.183,0.488-0.362,0.871-0.537,1.148
				c-0.175,0.277-0.406,0.492-0.694,0.641c-0.289,0.15-0.676,0.225-1.165,0.225c-0.477,0-0.834-0.053-1.072-0.154
				c-0.239-0.105-0.358-0.293-0.358-0.568c0-0.186,0.057-0.33,0.17-0.432c0.113-0.1,0.281-0.152,0.502-0.152
				c0.087,0,0.173,0.012,0.257,0.037c0.104,0.023,0.192,0.035,0.267,0.035c0.186,0,0.334-0.027,0.441-0.084
				c0.107-0.055,0.204-0.15,0.29-0.289C236.102,487.363,236.2,487.16,236.311,486.895z"/>
		</g>
		<g>
			<path style="fill:#FFFFFF;" d="M259.877,480.219h0.389v-0.488c0-0.512,0.063-0.914,0.191-1.217
				c0.129-0.299,0.35-0.518,0.656-0.654c0.309-0.137,0.73-0.205,1.266-0.205c0.953,0,1.426,0.23,1.426,0.699
				c0,0.149-0.049,0.279-0.15,0.385c-0.098,0.107-0.215,0.162-0.35,0.162c-0.063,0-0.176-0.012-0.332-0.039
				c-0.148-0.02-0.283-0.033-0.391-0.033c-0.293,0-0.48,0.088-0.566,0.26c-0.08,0.172-0.123,0.42-0.123,0.742v0.389h0.396
				c0.621,0,0.93,0.185,0.93,0.56c0,0.264-0.08,0.434-0.246,0.506c-0.164,0.07-0.393,0.107-0.684,0.107h-0.396v4.31
				c0,0.32-0.076,0.565-0.232,0.732c-0.15,0.17-0.348,0.254-0.59,0.254c-0.23,0-0.422-0.084-0.576-0.254
				c-0.154-0.168-0.228-0.412-0.228-0.732v-4.31h-0.449c-0.242,0-0.428-0.053-0.561-0.164c-0.131-0.107-0.197-0.252-0.197-0.426
				C259.059,480.41,259.332,480.219,259.877,480.219"/>
			<path style="fill:#FFFFFF;" d="M265.203,484.342v1.361c0,0.328-0.084,0.576-0.234,0.74c-0.156,0.166-0.352,0.246-0.588,0.246
				c-0.24,0-0.432-0.082-0.582-0.25c-0.148-0.166-0.227-0.412-0.227-0.736v-4.531c0-0.732,0.264-1.098,0.791-1.098
				c0.272,0,0.467,0.084,0.586,0.256c0.119,0.172,0.186,0.422,0.199,0.758c0.193-0.336,0.391-0.586,0.596-0.758
				c0.207-0.172,0.479-0.256,0.82-0.256c0.346,0,0.674,0.084,0.994,0.256c0.324,0.172,0.484,0.4,0.484,0.682
				c0,0.197-0.068,0.363-0.205,0.488c-0.137,0.133-0.283,0.197-0.441,0.197c-0.062,0-0.209-0.041-0.436-0.113
				c-0.229-0.072-0.432-0.109-0.604-0.109c-0.238,0-0.434,0.064-0.584,0.188c-0.152,0.129-0.271,0.313-0.355,0.557
				c-0.08,0.248-0.137,0.543-0.17,0.881C265.217,483.44,265.203,483.853,265.203,484.342"/>
			<path style="fill:#FFFFFF;" d="M272.682,483.783h-3.184c0.006,0.367,0.078,0.695,0.223,0.977c0.148,0.281,0.34,0.494,0.58,0.639
				c0.242,0.143,0.504,0.213,0.797,0.213c0.193,0,0.371-0.021,0.531-0.07c0.16-0.043,0.318-0.115,0.469-0.213
				c0.152-0.096,0.289-0.199,0.416-0.314c0.127-0.109,0.293-0.26,0.496-0.451c0.084-0.07,0.203-0.109,0.355-0.109
				c0.17,0,0.303,0.047,0.408,0.141c0.104,0.092,0.152,0.219,0.152,0.387c0,0.148-0.055,0.318-0.168,0.514
				c-0.117,0.199-0.289,0.387-0.523,0.568c-0.234,0.18-0.527,0.332-0.877,0.447c-0.352,0.121-0.758,0.18-1.213,0.18
				c-1.047,0-1.859-0.295-2.438-0.891c-0.58-0.598-0.873-1.408-0.873-2.428c0-0.48,0.074-0.928,0.219-1.34
				c0.141-0.412,0.35-0.762,0.625-1.059c0.273-0.295,0.609-0.52,1.012-0.676c0.4-0.156,0.846-0.234,1.336-0.234
				c0.635,0,1.18,0.135,1.635,0.404c0.455,0.266,0.799,0.613,1.021,1.039c0.227,0.426,0.34,0.857,0.34,1.301
				c0,0.406-0.117,0.672-0.352,0.793C273.435,483.723,273.107,483.783,272.682,483.783 M269.498,482.857h2.949
				c-0.039-0.555-0.186-0.973-0.447-1.246c-0.262-0.277-0.602-0.414-1.029-0.414c-0.404,0-0.738,0.137-0.998,0.42
				C269.713,481.897,269.553,482.31,269.498,482.857"/>
			<path style="fill:#FFFFFF;" d="M279.449,483.783h-3.184c0.004,0.367,0.08,0.695,0.223,0.977c0.147,0.281,0.338,0.494,0.578,0.639
				c0.24,0.143,0.506,0.213,0.799,0.213c0.191,0,0.371-0.021,0.529-0.07c0.162-0.043,0.316-0.115,0.471-0.213
				c0.152-0.096,0.289-0.199,0.416-0.314c0.125-0.109,0.291-0.26,0.494-0.451c0.086-0.07,0.205-0.109,0.357-0.109
				c0.168,0,0.303,0.047,0.408,0.141c0.104,0.092,0.15,0.219,0.15,0.387c0,0.148-0.055,0.318-0.172,0.514
				c-0.111,0.199-0.285,0.387-0.522,0.568c-0.23,0.18-0.525,0.332-0.875,0.447c-0.35,0.121-0.758,0.18-1.213,0.18
				c-1.047,0-1.857-0.295-2.439-0.891c-0.578-0.598-0.871-1.408-0.871-2.428c0-0.48,0.074-0.928,0.219-1.34
				c0.143-0.412,0.35-0.762,0.625-1.059c0.273-0.295,0.609-0.52,1.012-0.676c0.4-0.156,0.848-0.234,1.336-0.234
				c0.633,0,1.178,0.135,1.641,0.404c0.451,0.266,0.793,0.613,1.016,1.039c0.227,0.426,0.342,0.857,0.342,1.301
				c0,0.406-0.119,0.672-0.352,0.793C280.203,483.723,279.873,483.783,279.449,483.783 M276.266,482.857h2.951
				c-0.041-0.555-0.191-0.973-0.449-1.246c-0.264-0.277-0.603-0.414-1.031-0.414c-0.404,0-0.736,0.137-0.998,0.42
				C276.478,481.897,276.318,482.31,276.266,482.857"/>
			<path style="fill:#FFFFFF;" d="M283.012,480.99v0.193c0.307-0.377,0.625-0.652,0.957-0.83c0.326-0.178,0.701-0.268,1.119-0.268
				c0.498,0,0.963,0.131,1.383,0.387c0.422,0.26,0.752,0.637,0.998,1.133c0.244,0.5,0.367,1.086,0.367,1.766
				c0,0.5-0.07,0.961-0.211,1.381c-0.141,0.42-0.336,0.77-0.582,1.055c-0.248,0.281-0.537,0.502-0.873,0.656
				c-0.34,0.15-0.697,0.227-1.082,0.227c-0.465,0-0.857-0.092-1.172-0.279c-0.314-0.184-0.615-0.461-0.904-0.82v2.443
				c0,0.711-0.26,1.072-0.779,1.072c-0.309,0-0.508-0.092-0.609-0.275c-0.096-0.188-0.146-0.455-0.146-0.811v-7.022
				c0-0.31,0.066-0.539,0.201-0.695c0.135-0.15,0.32-0.229,0.555-0.229c0.23,0,0.418,0.078,0.561,0.234
				C282.941,480.469,283.012,480.691,283.012,480.99 M286.201,483.353c0-0.43-0.066-0.799-0.197-1.105
				c-0.131-0.31-0.313-0.545-0.543-0.709c-0.23-0.164-0.49-0.248-0.773-0.248c-0.447,0-0.826,0.178-1.135,0.529
				c-0.309,0.355-0.463,0.875-0.463,1.564c0,0.643,0.152,1.15,0.461,1.51c0.307,0.359,0.682,0.537,1.137,0.537
				c0.27,0,0.522-0.078,0.752-0.232c0.232-0.158,0.418-0.393,0.555-0.707C286.133,484.178,286.201,483.797,286.201,483.353"/>
			<path style="fill:#FFFFFF;" d="M289.475,479.316c-0.228,0-0.42-0.07-0.58-0.209c-0.162-0.141-0.242-0.334-0.242-0.588
				c0-0.23,0.082-0.42,0.248-0.572c0.164-0.146,0.355-0.223,0.574-0.223c0.213,0,0.398,0.066,0.561,0.201
				c0.162,0.137,0.244,0.334,0.244,0.594c0,0.25-0.078,0.445-0.236,0.586C289.883,479.246,289.695,479.316,289.475,479.316
				 M290.279,480.998v4.705c0,0.324-0.078,0.57-0.232,0.736c-0.156,0.168-0.352,0.25-0.59,0.25c-0.238,0-0.43-0.084-0.582-0.254
				c-0.147-0.174-0.223-0.418-0.223-0.732v-4.66c0-0.318,0.076-0.561,0.223-0.723c0.152-0.166,0.344-0.246,0.582-0.246
				c0.238,0,0.434,0.08,0.59,0.246C290.201,480.482,290.279,480.711,290.279,480.998"/>
			<path style="fill:#FFFFFF;" d="M295.523,485.947l-1.432-2.361l-0.885,0.832v1.297c0,0.313-0.082,0.553-0.248,0.721
				c-0.16,0.17-0.356,0.254-0.568,0.254c-0.25,0-0.449-0.082-0.59-0.25c-0.143-0.166-0.217-0.412-0.217-0.736v-6.941
				c0-0.359,0.072-0.635,0.209-0.824c0.139-0.191,0.342-0.283,0.598-0.283c0.25,0,0.447,0.086,0.596,0.258
				c0.146,0.17,0.221,0.422,0.221,0.754v3.947l1.83-1.92c0.227-0.236,0.397-0.402,0.52-0.488c0.119-0.088,0.262-0.131,0.432-0.131
				c0.205,0,0.373,0.065,0.512,0.193c0.133,0.129,0.201,0.293,0.201,0.484c0,0.238-0.223,0.558-0.662,0.955l-0.863,0.793
				l1.668,2.623c0.121,0.197,0.213,0.342,0.266,0.443c0.053,0.1,0.082,0.201,0.082,0.289c0,0.26-0.072,0.461-0.213,0.613
				c-0.143,0.148-0.33,0.221-0.557,0.221c-0.199,0-0.354-0.051-0.461-0.16C295.855,486.422,295.707,486.227,295.523,485.947"/>
			<path style="fill:#FFFFFF;" d="M299.06,486.69c-0.246,0-0.457-0.078-0.637-0.238c-0.178-0.156-0.27-0.379-0.27-0.668
				c0-0.242,0.088-0.451,0.258-0.623c0.172-0.176,0.381-0.264,0.633-0.264c0.25,0,0.461,0.088,0.641,0.258
				c0.176,0.174,0.266,0.385,0.266,0.629c0,0.283-0.09,0.508-0.266,0.664C299.506,486.611,299.297,486.69,299.06,486.69"/>
			<path style="fill:#FFFFFF;" d="M307.152,484.676c0,0.201-0.06,0.42-0.184,0.65c-0.119,0.23-0.305,0.449-0.555,0.658
				c-0.248,0.207-0.561,0.377-0.938,0.504c-0.377,0.127-0.805,0.191-1.275,0.191c-1.008,0-1.793-0.295-2.357-0.879
				c-0.561-0.586-0.844-1.373-0.844-2.357c0-0.67,0.129-1.26,0.389-1.773c0.256-0.51,0.631-0.906,1.117-1.188
				c0.49-0.281,1.076-0.42,1.754-0.42c0.422,0,0.807,0.06,1.162,0.185c0.352,0.121,0.646,0.283,0.893,0.475
				c0.244,0.197,0.432,0.404,0.559,0.623c0.131,0.221,0.193,0.428,0.193,0.619c0,0.193-0.07,0.359-0.215,0.494
				c-0.148,0.135-0.324,0.203-0.527,0.203c-0.137,0-0.248-0.035-0.338-0.104c-0.092-0.07-0.191-0.182-0.301-0.34
				c-0.199-0.301-0.406-0.529-0.625-0.678c-0.215-0.152-0.49-0.226-0.824-0.226c-0.479,0-0.867,0.185-1.162,0.563
				c-0.295,0.373-0.441,0.891-0.441,1.539c0,0.307,0.039,0.59,0.113,0.846c0.074,0.256,0.184,0.475,0.328,0.656
				c0.145,0.18,0.316,0.316,0.518,0.41c0.203,0.096,0.428,0.141,0.668,0.141c0.326,0,0.605-0.074,0.838-0.227
				c0.236-0.15,0.441-0.381,0.619-0.691c0.1-0.182,0.205-0.324,0.318-0.428c0.115-0.103,0.258-0.156,0.424-0.156
				c0.199,0,0.365,0.076,0.494,0.227C307.086,484.344,307.152,484.506,307.152,484.676"/>
			<path style="fill:#FFFFFF;" d="M314.172,483.383c0,0.484-0.076,0.932-0.223,1.342c-0.154,0.41-0.371,0.762-0.658,1.055
				c-0.285,0.293-0.629,0.52-1.023,0.678c-0.402,0.154-0.848,0.234-1.342,0.234c-0.492,0-0.938-0.08-1.33-0.24
				c-0.393-0.156-0.736-0.385-1.022-0.68c-0.289-0.299-0.508-0.649-0.66-1.051c-0.143-0.404-0.219-0.85-0.219-1.338
				c0-0.492,0.078-0.943,0.225-1.354c0.152-0.41,0.369-0.76,0.652-1.049c0.283-0.291,0.623-0.514,1.023-0.672
				c0.402-0.156,0.846-0.234,1.33-0.234c0.492,0,0.939,0.078,1.342,0.24c0.4,0.156,0.742,0.385,1.031,0.676
				c0.287,0.299,0.504,0.646,0.652,1.049C314.098,482.447,314.172,482.893,314.172,483.383 M312.539,483.383
				c0-0.664-0.147-1.18-0.438-1.549c-0.291-0.373-0.684-0.557-1.176-0.557c-0.318,0-0.6,0.084-0.842,0.248
				c-0.244,0.164-0.428,0.406-0.559,0.73c-0.131,0.322-0.199,0.697-0.199,1.127c0,0.426,0.064,0.797,0.195,1.113
				c0.131,0.32,0.314,0.563,0.555,0.732c0.242,0.166,0.525,0.254,0.85,0.254c0.492,0,0.885-0.188,1.176-0.56
				C312.393,484.551,312.539,484.037,312.539,483.383"/>
			<path style="fill:#FFFFFF;" d="M320.379,483.504v2.162c0,0.342-0.076,0.596-0.232,0.77c-0.156,0.17-0.357,0.256-0.613,0.256
				c-0.246,0-0.447-0.086-0.596-0.256c-0.156-0.174-0.234-0.428-0.234-0.77v-2.592c0-0.41-0.014-0.73-0.039-0.957
				c-0.029-0.221-0.105-0.41-0.229-0.555c-0.123-0.147-0.318-0.219-0.584-0.219c-0.533,0-0.883,0.182-1.051,0.553
				c-0.168,0.361-0.256,0.885-0.256,1.572v2.197c0,0.336-0.076,0.594-0.227,0.768c-0.156,0.17-0.355,0.258-0.605,0.258
				c-0.248,0-0.449-0.088-0.605-0.258c-0.158-0.174-0.236-0.432-0.236-0.768v-4.654c0-0.309,0.07-0.541,0.211-0.697
				c0.143-0.162,0.33-0.24,0.557-0.24c0.225,0,0.41,0.076,0.56,0.223c0.148,0.15,0.223,0.355,0.223,0.617v0.154
				c0.283-0.336,0.586-0.584,0.906-0.74c0.322-0.164,0.678-0.242,1.074-0.242c0.408,0,0.76,0.082,1.053,0.244
				c0.293,0.164,0.535,0.412,0.727,0.738c0.275-0.332,0.57-0.578,0.885-0.74c0.314-0.162,0.66-0.242,1.043-0.242
				c0.443,0,0.83,0.09,1.15,0.262c0.32,0.176,0.56,0.428,0.721,0.75c0.139,0.297,0.207,0.76,0.207,1.391v3.178
				c0,0.342-0.076,0.596-0.23,0.77c-0.154,0.17-0.361,0.256-0.615,0.256c-0.246,0-0.447-0.088-0.605-0.258
				c-0.156-0.174-0.234-0.432-0.234-0.768v-2.736c0-0.352-0.016-0.629-0.045-0.84c-0.029-0.211-0.109-0.389-0.24-0.531
				c-0.133-0.143-0.332-0.215-0.598-0.215c-0.215,0-0.418,0.066-0.611,0.191c-0.191,0.125-0.342,0.299-0.451,0.51
				C320.439,482.32,320.379,482.807,320.379,483.504"/>
		</g>
		<g>
			<path style="fill:#FFFFFF;" d="M244.652,482.99c-0.001-0.004-0.001-0.006-0.001-0.012
				C244.651,482.984,244.651,482.986,244.652,482.99z"/>
			<path style="fill:#FFFFFF;" d="M244.734,483.51c0.001,0,0.001,0,0.001,0c-0.031-0.148-0.055-0.295-0.074-0.439
				C244.681,483.215,244.705,483.363,244.734,483.51z"/>
			<path style="fill:#FFFFFF;" d="M245.272,485.02c-0.003-0.006-0.006-0.014-0.01-0.022
				C245.267,485.006,245.269,485.014,245.272,485.02z"/>
			<path style="fill:#FFFFFF;" d="M245.221,484.92c-0.014-0.029-0.027-0.057-0.04-0.084
				C245.194,484.865,245.207,484.891,245.221,484.92z"/>
			<path style="fill:#FFFFFF;" d="M244.885,484.092c0.079,0.25,0.176,0.494,0.287,0.727c-0.113-0.238-0.207-0.48-0.284-0.727
				C244.888,484.092,244.887,484.092,244.885,484.092z"/>
			<path style="fill:#FFFFFF;" d="M250.95,476.756c0.314,0,0.546,0.025,0.812,0.07l0.076-0.479c0,0-0.734-0.227-1.701-0.146
				l-0.076-0.262c0.3-0.063,0.525-0.33,0.525-0.649c0-0.365-0.298-0.66-0.663-0.66c-0.366,0-0.663,0.295-0.663,0.66
				c0,0.318,0.225,0.586,0.525,0.649l0.084,0.291c-1.025,0.141-1.841,0.541-1.841,0.541l0.145,0.441
				c0.62-0.205,1.158-0.332,1.646-0.385C250.296,476.777,250.657,476.756,250.95,476.756z"/>
			<path style="fill:#FFFFFF;" d="M245.26,479.176l0.004-0.004c0.024-0.031,0.047-0.061,0.071-0.09l-0.196-0.141l-0.307-0.225
				c-0.017,0.023-0.498,0.467-0.878,1.285c-0.016-0.025-0.036-0.051-0.057-0.074c-0.114-0.125-0.273-0.189-0.476-0.186
				c-0.003,0-0.006,0-0.009,0c-0.125,0-0.211-0.041-0.268-0.092c0.056-0.072,0.09-0.16,0.09-0.26c0-0.23-0.189-0.42-0.42-0.42
				c-0.232,0-0.419,0.189-0.419,0.42c0,0.232,0.188,0.42,0.419,0.42c0.037,0,0.071-0.006,0.105-0.014
				c0.104,0.115,0.266,0.215,0.506,0.211c0.124-0.002,0.214,0.029,0.274,0.098c0.07,0.076,0.093,0.185,0.101,0.267
				c-0.001,0.002-0.001,0.004-0.003,0.004c-0.273,0.746-0.195,1.674-0.195,1.674l0.663,0.027c0.013-0.338,0.063-0.93,0.233-1.4
				C244.83,479.77,245.244,479.201,245.26,479.176z"/>
			<path style="fill:#FFFFFF;" d="M256.721,477.31c-0.23,0-0.42,0.188-0.42,0.42c0,0.035,0.006,0.07,0.016,0.104
				c-0.115,0.103-0.215,0.268-0.213,0.508c0.002,0.125-0.029,0.213-0.096,0.273c-0.053,0.049-0.121,0.072-0.185,0.09
				c-0.494-0.693-1.102-1.115-1.102-1.115l-0.477,0.512c0.359,0.326,0.727,0.736,1.084,1.248c0.248,0.353,0.502,0.809,0.713,1.264
				l0.643-0.305c0,0-0.293-0.725-0.705-1.375c0.07-0.025,0.143-0.064,0.207-0.121c0.125-0.113,0.188-0.273,0.184-0.475
				c-0.002-0.131,0.041-0.219,0.094-0.277c0.07,0.055,0.16,0.09,0.258,0.09c0.232,0,0.42-0.189,0.42-0.42
				C257.141,477.498,256.953,477.31,256.721,477.31z"/>
			<path style="fill:#FFFFFF;" d="M255.053,483.084c-0.883,0.43-2.338,1-4.253,1.266c-0.752,0.105-1.48,0.145-2.151,0.145
				c-0.872,0-1.643-0.066-2.235-0.141c-0.675-0.086-1.203-0.189-1.525-0.262c0.077,0.246,0.171,0.488,0.284,0.727
				c0.002,0.006,0.005,0.012,0.009,0.018c0.013,0.027,0.027,0.055,0.04,0.084c0.013,0.027,0.027,0.053,0.041,0.078
				c0.004,0.008,0.007,0.016,0.01,0.022c0.19,0.358,0.418,0.688,0.678,0.971c0.904,0.988,1.824,1.145,1.832,1.146l0.015,0.002
				l0.014,0.006c0.008,0.002,0.824,0.266,2.065,0.266c1.219,0,2.418-0.246,3.559-0.732c0.846-0.432,1.645-1.09,2.041-1.674
				c0.307-0.455,0.527-0.938,0.658-1.439c0.07-0.268,0.125-0.695,0.094-1.147C255.979,482.586,255.586,482.824,255.053,483.084z"/>
			<path style="fill:#FFFFFF;" d="M245.544,479.387c-0.025,0.037-0.409,0.58-0.712,1.412c-0.227,0.625-0.217,1.533-0.217,1.543
				v0.002c0,0.215,0.012,0.426,0.036,0.635c0,0.006,0,0.008,0.001,0.012c0.003,0.027,0.007,0.053,0.009,0.08
				c0.019,0.145,0.044,0.291,0.074,0.439c0.44,0.111,3.061,0.723,5.99,0.314c1.836-0.256,3.231-0.797,4.077-1.209
				c0.705-0.34,1.156-0.648,1.332-0.775c-0.176-0.646-0.654-1.658-1.094-2.289c-1.258-1.797-2.615-2.258-3.313-2.373
				c-0.266-0.043-0.479-0.068-0.779-0.068c-0.281,0-0.629,0.023-1.094,0.072c-0.466,0.047-0.986,0.17-1.589,0.373
				c-0.845,0.283-1.61,0.727-2.213,1.285l-0.02,0.02C245.945,478.941,245.759,479.113,245.544,479.387z M253.242,478.967
				c0.604,0,1.094,0.49,1.094,1.094c0,0.604-0.49,1.096-1.094,1.096s-1.094-0.492-1.094-1.096
				C252.148,479.457,252.639,478.967,253.242,478.967z M248.071,478.924c0.977,0,1.767,0.791,1.767,1.768s-0.79,1.766-1.767,1.766
				c-0.976,0-1.767-0.789-1.767-1.766S247.096,478.924,248.071,478.924z"/>
		</g>
	</g>
</g>
</svg>
